<?xml version="1.0" encoding="UTF-8"?>
<svg id="Layer_1" xmlns="http://www.w3.org/2000/svg" version="1.1" viewBox="0 0 924.52 191.14">
  <defs>
    <style>
      .st0 {
        fill: #2d363b;
      }
    </style>
  </defs>
  <path class="st0" d="M159.19,110.21c0-38.87,22.89-57.5,56.7-57.5s56.44,18.63,56.44,57.77v1.33h-25.02v-1.6c0-24.22-12.78-34.07-31.41-34.07s-31.41,9.85-31.41,34.07v77.47h-25.29v-77.47Z"/>
  <path class="st0" d="M281.64,137.89V9.58h25.29v46.59h72.41v23.16h-72.41v58.56c0,20.76,10.91,29.81,27.42,29.81s27.69-8.78,27.69-29.81v-2.93h25.02v2.93c0,35.67-21.3,53.24-52.71,53.24s-52.71-17.57-52.71-53.24Z"/>
  <path class="st0" d="M400.1,110.21c0-38.87,22.89-57.5,56.7-57.5s56.44,18.63,56.44,57.77v1.33h-25.02v-1.6c0-24.22-12.78-34.07-31.41-34.07s-31.41,9.85-31.41,34.07v77.47h-25.29v-77.47Z"/>
  <path class="st0" d="M522.28,17.57c0-10.12,7.45-17.57,17.57-17.57s17.57,7.46,17.57,17.57-7.45,17.84-17.57,17.84-17.57-7.72-17.57-17.84ZM527.34,56.17h25.29v131.51h-25.29V56.17Z"/>
  <path class="st0" d="M575.26,124.85V56.17h25.29v68.68c0,28.48,15.71,42.86,39.66,42.86s39.66-14.38,39.66-42.86V56.17h25.29v68.68c0,43.66-26.09,66.29-64.96,66.29s-64.95-22.36-64.95-66.29Z"/>
  <path class="st0" d="M723.27,111.54c0-40.2,23.43-58.83,54.31-58.83,20.23,0,37.27,9.05,46.32,26.09,9.05-17.04,25.82-26.09,46.32-26.09,30.88,0,54.31,18.63,54.31,58.83v76.13h-25.29v-76.13c0-24.49-13.04-35.41-31.41-35.41s-31.15,11.45-31.15,35.41v76.13h-25.29v-76.13c0-23.96-13.58-35.41-31.41-35.41s-31.41,10.92-31.41,35.41v76.13h-25.29v-76.13Z"/>
  <path class="st0" d="M71.08,52.71C29.28,52.71,0,81.73,0,122.99v68.15h66.82c22.89,0,42.33-10.92,51.11-32.21v28.75h23.16v-64.69c0-42.06-28.75-70.28-70.01-70.28ZM70.81,167.71c-27.15,0-45.25-19.17-45.25-45.79s18.1-45.79,45.25-45.79,45.26,19.17,45.26,45.79-18.1,45.79-45.26,45.79Z"/>
</svg>
