<svg width="197" height="33" viewBox="0 0 197 33" fill="none" xmlns="http://www.w3.org/2000/svg">
<g clip-path="url(#clip0_2024_2434)">
<path d="M37.1816 0H49.2351C52.6448 0 55.5483 1.18603 57.9456 3.56757C60.3429 5.94911 61.5368 8.83353 61.5368 12.2208C61.5368 15.6081 60.3429 18.4925 57.9456 20.8741C56.7613 22.0506 55.4719 22.9235 54.0583 23.5118L58.8816 31.776H57.4012L52.8263 23.9577C51.7088 24.2803 50.5149 24.4416 49.2351 24.4416H38.4137V31.776H37.1816V0ZM38.4042 1.22398V23.2177H49.2255C52.2723 23.2177 54.8797 22.1455 57.0478 19.9917C59.2159 17.8378 60.2952 15.2476 60.2952 12.2208C60.2952 9.19408 59.2159 6.6038 57.0478 4.44997C54.8797 2.29615 52.2723 1.22398 49.2255 1.22398H38.4042Z" fill="#231F20"/>
<path d="M83.7725 0V1.22398H73.9349V31.776H72.7028V1.22398H62.8652V0H83.782H83.7725Z" fill="#231F20"/>
<path d="M88.7012 0H100.755C104.164 0 107.068 1.18603 109.465 3.56757C111.862 5.94911 113.056 8.83353 113.056 12.2208C113.056 15.6081 111.862 18.4925 109.465 20.8741C108.281 22.0506 106.991 22.9235 105.578 23.5118L110.401 31.776H108.921L104.346 23.9577C103.228 24.2803 102.034 24.4416 100.755 24.4416H89.9333V31.776H88.7012V0ZM89.9237 1.22398V23.2177H100.745C103.792 23.2177 106.399 22.1455 108.567 19.9917C110.735 17.8378 111.815 15.2476 111.815 12.2208C111.815 9.19408 110.735 6.6038 108.567 4.44997C106.399 2.29615 103.792 1.22398 100.745 1.22398H89.9237Z" fill="#231F20"/>
<path d="M123.142 0V31.776H121.91V0H123.142Z" fill="#231F20"/>
<path d="M155.127 20.7792V0H156.359V20.7792C156.359 24.1665 155.165 27.0509 152.768 29.4324C150.371 31.814 147.467 33 144.058 33C140.648 33 137.744 31.814 135.347 29.4324C132.95 27.0509 131.756 24.1665 131.756 20.7792V0H132.988V20.7792C132.988 23.8059 134.067 26.3962 136.235 28.55C138.403 30.7039 141.011 31.776 144.058 31.776C147.104 31.776 149.712 30.7039 151.88 28.55C154.048 26.3962 155.127 23.8059 155.127 20.7792Z" fill="#231F20"/>
<path d="M166.197 1.66044V31.776H164.965V0H166.541L181.011 19.8019L195.423 0H196.999V31.776H195.767V1.66044L181.794 20.8266H180.17L166.197 1.66044Z" fill="#231F20"/>
<path d="M7.80303 18.094C10.4391 12.4865 13.0657 6.87895 15.7017 1.27142C18.3569 6.90742 21.0121 12.5434 23.6673 18.1699C24.3359 18.6064 24.9949 19.0334 25.6635 19.4698L16.4849 0H14.909L5.81641 19.3749C6.47543 18.948 7.13445 18.521 7.80303 18.094Z" fill="#231F20"/>
<path d="M27.2016 23.227C27.2016 23.227 26.9342 22.857 26.6572 22.5249C23.9256 19.3274 19.8664 17.6479 15.6639 17.6479C10.6783 17.6479 5.98872 20.2762 4.02121 23.5022C3.39084 24.5364 2.17785 27.0318 1.90087 27.6106C1.06993 29.3279 0.430012 30.7701 0.00976562 31.7759H1.38512C2.1301 30.2009 2.84643 28.6068 3.61051 27.0413C4.36505 25.4757 5.16733 24.081 6.43762 22.8665C7.43093 21.9176 8.54841 21.0922 9.76139 20.447C11.5856 19.4887 13.6105 18.9858 15.6735 18.9763C18.9495 18.9668 22.044 20.2477 24.4891 22.3826C25.7594 23.4927 26.8578 24.821 27.5646 26.3581C28.3955 28.1609 29.2264 29.9731 30.0765 31.7664H31.4518C30.6973 30.1249 30.1147 28.8251 29.7517 27.9901C28.8826 26.026 28.3573 24.7641 27.2112 23.2175L27.2016 23.227Z" fill="#231F20"/>
</g>
<defs>
<clipPath id="clip0_2024_2434">
<rect width="197" height="33" fill="white"/>
</clipPath>
</defs>
</svg>
