<?xml version="1.0" standalone="no"?>
<!DOCTYPE svg PUBLIC "-//W3C//DTD SVG 20010904//EN"
 "http://www.w3.org/TR/2001/REC-SVG-20010904/DTD/svg10.dtd">
<svg version="1.0" xmlns="http://www.w3.org/2000/svg"
 width="200.000000pt" height="200.000000pt" viewBox="0 0 200.000000 200.000000"
 preserveAspectRatio="xMidYMid meet">
<metadata>
Created by potrace 1.16, written by Peter Selinger 2001-2019
</metadata><g><rect x="0" y="0" width="200" height="200" fill="none" />
<g transform="translate(0.000000,200.000000) scale(0.023810,-0.023810)"
fill="#000000" stroke="none">
<path d="M720 6840 l0 -840 840 0 840 0 0 840 0 840 -840 0 -840 0 0 -840z
m1440 0 l0 -600 -600 0 -600 0 0 600 0 600 600 0 600 0 0 -600z"/>
<path d="M1200 6840 l0 -360 360 0 360 0 0 360 0 360 -360 0 -360 0 0 -360z"/>
<path d="M3120 7560 l0 -120 -240 0 -240 0 0 -240 0 -240 120 0 120 0 0 -120
0 -120 -120 0 -120 0 0 -480 0 -480 -240 0 -240 0 0 -120 0 -120 -240 0 -240
0 0 120 0 120 -120 0 -120 0 0 -120 0 -120 120 0 120 0 0 -120 0 -120 240 0
240 0 0 -120 0 -120 -120 0 -120 0 0 -120 0 -120 120 0 120 0 0 -120 0 -120
120 0 120 0 0 120 0 120 360 0 360 0 0 -120 0 -120 -240 0 -240 0 0 -240 0
-240 -120 0 -120 0 0 120 0 120 -480 0 -480 0 0 480 0 480 -120 0 -120 0 0
240 0 240 -240 0 -240 0 0 -120 0 -120 120 0 120 0 0 -120 0 -120 120 0 120 0
0 -120 0 -120 -240 0 -240 0 0 -120 0 -120 120 0 120 0 0 -120 0 -120 -120 0
-120 0 0 -120 0 -120 120 0 120 0 0 120 0 120 120 0 120 0 0 -240 0 -240 -240
0 -240 0 0 -240 0 -240 120 0 120 0 0 -120 0 -120 -120 0 -120 0 0 -120 0
-120 120 0 120 0 0 120 0 120 120 0 120 0 0 -360 0 -360 120 0 120 0 0 240 0
240 240 0 240 0 0 120 0 120 120 0 120 0 0 -120 0 -120 120 0 120 0 0 -120 0
-120 -120 0 -120 0 0 -120 0 -120 120 0 120 0 0 120 0 120 240 0 240 0 0 120
0 120 360 0 360 0 0 -120 0 -120 120 0 120 0 0 240 0 240 120 0 120 0 0 -240
0 -240 240 0 240 0 0 120 0 120 -120 0 -120 0 0 240 0 240 120 0 120 0 0 -120
0 -120 120 0 120 0 0 120 0 120 120 0 120 0 0 120 0 120 120 0 120 0 0 -120 0
-120 120 0 120 0 0 120 0 120 -120 0 -120 0 0 120 0 120 -480 0 -480 0 0 240
0 240 480 0 480 0 0 -120 0 -120 240 0 240 0 0 -360 0 -360 120 0 120 0 0
-240 0 -240 240 0 240 0 0 360 0 360 -120 0 -120 0 0 120 0 120 -120 0 -120 0
0 240 0 240 120 0 120 0 0 -120 0 -120 120 0 120 0 0 120 0 120 -120 0 -120 0
0 120 0 120 240 0 240 0 0 -120 0 -120 120 0 120 0 0 120 0 120 120 0 120 0 0
-120 0 -120 240 0 240 0 0 120 0 120 -120 0 -120 0 0 240 0 240 120 0 120 0 0
120 0 120 -120 0 -120 0 0 120 0 120 -240 0 -240 0 0 -120 0 -120 -120 0 -120
0 0 120 0 120 -360 0 -360 0 0 -120 0 -120 -240 0 -240 0 0 120 0 120 120 0
120 0 0 240 0 240 -120 0 -120 0 0 120 0 120 120 0 120 0 0 120 0 120 -120 0
-120 0 0 -120 0 -120 -120 0 -120 0 0 240 0 240 240 0 240 0 0 120 0 120 -240
0 -240 0 0 -120 0 -120 -120 0 -120 0 0 120 0 120 -120 0 -120 0 0 120 0 120
-120 0 -120 0 0 -120 0 -120 -240 0 -240 0 0 -120 0 -120 -240 0 -240 0 0
-480 0 -480 -120 0 -120 0 0 360 0 360 -120 0 -120 0 0 120 0 120 -120 0 -120
0 0 120 0 120 240 0 240 0 0 240 0 240 -120 0 -120 0 0 -120z m1680 -480 l0
-120 120 0 120 0 0 -120 0 -120 -120 0 -120 0 0 -120 0 -120 -240 0 -240 0 0
-120 0 -120 120 0 120 0 0 -120 0 -120 120 0 120 0 0 120 0 120 120 0 120 0 0
-120 0 -120 -120 0 -120 0 0 -120 0 -120 240 0 240 0 0 240 0 240 120 0 120 0
0 -240 0 -240 -120 0 -120 0 0 -120 0 -120 120 0 120 0 0 -120 0 -120 240 0
240 0 0 -120 0 -120 120 0 120 0 0 240 0 240 240 0 240 0 0 -240 0 -240 120 0
120 0 0 -120 0 -120 -120 0 -120 0 0 120 0 120 -240 0 -240 0 0 -120 0 -120
-240 0 -240 0 0 120 0 120 -120 0 -120 0 0 120 0 120 -120 0 -120 0 0 -120 0
-120 -120 0 -120 0 0 -120 0 -120 -120 0 -120 0 0 240 0 240 -120 0 -120 0 0
-120 0 -120 -120 0 -120 0 0 -120 0 -120 -120 0 -120 0 0 -120 0 -120 -120 0
-120 0 0 -240 0 -240 240 0 240 0 0 -240 0 -240 -120 0 -120 0 0 120 0 120
-240 0 -240 0 0 -240 0 -240 -120 0 -120 0 0 120 0 120 -120 0 -120 0 0 -120
0 -120 -120 0 -120 0 0 -120 0 -120 -240 0 -240 0 0 120 0 120 -120 0 -120 0
0 120 0 120 120 0 120 0 0 -120 0 -120 240 0 240 0 0 240 0 240 -120 0 -120 0
0 120 0 120 240 0 240 0 0 240 0 240 120 0 120 0 0 -240 0 -240 -120 0 -120 0
0 -120 0 -120 240 0 240 0 0 480 0 480 240 0 240 0 0 120 0 120 120 0 120 0 0
120 0 120 -120 0 -120 0 0 120 0 120 -120 0 -120 0 0 120 0 120 -120 0 -120 0
0 120 0 120 120 0 120 0 0 360 0 360 120 0 120 0 0 120 0 120 240 0 240 0 0
120 0 120 120 0 120 0 0 -120z m-1680 -960 l0 -360 120 0 120 0 0 -360 0 -360
-240 0 -240 0 0 120 0 120 -360 0 -360 0 0 120 0 120 240 0 240 0 0 120 0 120
120 0 120 0 0 360 0 360 120 0 120 0 0 -360z m4320 -720 l0 -120 -240 0 -240
0 0 120 0 120 240 0 240 0 0 -120z m-5040 -480 l0 -120 -120 0 -120 0 0 120 0
120 120 0 120 0 0 -120z m3120 -240 l0 -120 -120 0 -120 0 0 120 0 120 120 0
120 0 0 -120z m-3120 -720 l0 -120 -240 0 -240 0 0 -120 0 -120 -120 0 -120 0
0 -120 0 -120 -120 0 -120 0 0 120 0 120 -120 0 -120 0 0 240 0 240 600 0 600
0 0 -120z m2400 -240 l0 -120 -120 0 -120 0 0 120 0 120 120 0 120 0 0 -120z
m1440 0 l0 -120 -120 0 -120 0 0 120 0 120 120 0 120 0 0 -120z"/>
<path d="M4080 6120 l0 -120 -120 0 -120 0 0 -120 0 -120 120 0 120 0 0 -120
0 -120 360 0 360 0 0 120 0 120 -360 0 -360 0 0 120 0 120 120 0 120 0 0 120
0 120 -120 0 -120 0 0 -120z"/>
<path d="M2880 5400 l0 -120 120 0 120 0 0 120 0 120 -120 0 -120 0 0 -120z"/>
<path d="M4080 7560 l0 -120 120 0 120 0 0 120 0 120 -120 0 -120 0 0 -120z"/>
<path d="M5040 7560 l0 -120 240 0 240 0 0 120 0 120 -240 0 -240 0 0 -120z"/>
<path d="M6000 6840 l0 -840 840 0 840 0 0 840 0 840 -840 0 -840 0 0 -840z
m1440 0 l0 -600 -600 0 -600 0 0 600 0 600 600 0 600 0 0 -600z"/>
<path d="M6480 6840 l0 -360 360 0 360 0 0 360 0 360 -360 0 -360 0 0 -360z"/>
<path d="M6720 4080 l0 -240 120 0 120 0 0 120 0 120 120 0 120 0 0 -240 0
-240 120 0 120 0 0 -120 0 -120 -120 0 -120 0 0 -240 0 -240 -120 0 -120 0 0
-240 0 -240 120 0 120 0 0 -120 0 -120 -240 0 -240 0 0 360 0 360 -480 0 -480
0 0 120 0 120 -240 0 -240 0 0 120 0 120 -120 0 -120 0 0 -120 0 -120 -120 0
-120 0 0 -120 0 -120 360 0 360 0 0 -120 0 -120 -480 0 -480 0 0 -240 0 -240
-240 0 -240 0 0 -120 0 -120 120 0 120 0 0 -120 0 -120 240 0 240 0 0 -120 0
-120 -120 0 -120 0 0 -120 0 -120 120 0 120 0 0 -120 0 -120 -120 0 -120 0 0
-120 0 -120 240 0 240 0 0 360 0 360 240 0 240 0 0 120 0 120 240 0 240 0 0
-120 0 -120 -120 0 -120 0 0 -120 0 -120 -240 0 -240 0 0 -120 0 -120 120 0
120 0 0 -120 0 -120 120 0 120 0 0 240 0 240 120 0 120 0 0 120 0 120 120 0
120 0 0 120 0 120 120 0 120 0 0 -360 0 -360 -120 0 -120 0 0 -120 0 -120 240
0 240 0 0 240 0 240 240 0 240 0 0 -240 0 -240 120 0 120 0 0 240 0 240 120 0
120 0 0 120 0 120 -120 0 -120 0 0 120 0 120 120 0 120 0 0 240 0 240 -120 0
-120 0 0 120 0 120 120 0 120 0 0 120 0 120 -240 0 -240 0 0 120 0 120 240 0
240 0 0 360 0 360 -120 0 -120 0 0 240 0 240 120 0 120 0 0 120 0 120 -480 0
-480 0 0 -240z m-240 -1800 l0 -360 -360 0 -360 0 0 360 0 360 360 0 360 0 0
-360z m-960 -240 l0 -360 -240 0 -240 0 0 120 0 120 -240 0 -240 0 0 120 0
120 360 0 360 0 0 120 0 120 120 0 120 0 0 -360z m1920 -120 l0 -240 -360 0
-360 0 0 120 0 120 240 0 240 0 0 120 0 120 120 0 120 0 0 -240z m0 -600 l0
-120 -120 0 -120 0 0 120 0 120 120 0 120 0 0 -120z"/>
<path d="M6000 2280 l0 -120 120 0 120 0 0 120 0 120 -120 0 -120 0 0 -120z"/>
<path d="M6720 3480 l0 -120 120 0 120 0 0 120 0 120 -120 0 -120 0 0 -120z"/>
<path d="M720 2760 l0 -120 120 0 120 0 0 120 0 120 -120 0 -120 0 0 -120z"/>
<path d="M3120 2520 l0 -360 -120 0 -120 0 0 240 0 240 -120 0 -120 0 0 -240
0 -240 120 0 120 0 0 -120 0 -120 240 0 240 0 0 240 0 240 120 0 120 0 0 120
0 120 -120 0 -120 0 0 120 0 120 -120 0 -120 0 0 -360z"/>
<path d="M4080 2520 l0 -120 120 0 120 0 0 120 0 120 -120 0 -120 0 0 -120z"/>
<path d="M720 1560 l0 -840 840 0 840 0 0 840 0 840 -840 0 -840 0 0 -840z
m1440 0 l0 -600 -600 0 -600 0 0 600 0 600 600 0 600 0 0 -600z"/>
<path d="M1200 1560 l0 -360 360 0 360 0 0 360 0 360 -360 0 -360 0 0 -360z"/>
<path d="M3600 1800 l0 -120 -120 0 -120 0 0 -120 0 -120 -240 0 -240 0 0 120
0 120 -120 0 -120 0 0 -120 0 -120 120 0 120 0 0 -120 0 -120 -120 0 -120 0 0
-240 0 -240 480 0 480 0 0 120 0 120 120 0 120 0 0 -120 0 -120 240 0 240 0 0
240 0 240 -240 0 -240 0 0 360 0 360 -120 0 -120 0 0 -120z m0 -600 l0 -240
-360 0 -360 0 0 120 0 120 240 0 240 0 0 120 0 120 120 0 120 0 0 -240z"/>
</g>
</g></svg>
